<svg width="152" height="61" viewBox="0 0 152 61" fill="none" xmlns="http://www.w3.org/2000/svg">
<g filter="url(#filter0_d_537_42)">
<rect x="4.5" y="0.5" width="23.0462" height="22.2967" rx="4.5" fill="#18181B" stroke="#27272A"/>
<rect x="34.5577" y="0.5" width="23.0462" height="22.2967" rx="4.5" fill="#1E3A8A" stroke="#1D4ED8"/>
<path d="M34.5577 34.1209C34.5577 31.6356 36.5724 29.6209 39.0577 29.6209H53.1039C55.5891 29.6209 57.6039 31.6356 57.6039 34.1209V47.4176C57.6039 49.9029 55.5891 51.9176 53.1039 51.9176H39.0577C36.5724 51.9176 34.5577 49.9029 34.5577 47.4176V34.1209Z" fill="#1D4ED8" stroke="#3B82F6"/>
<rect x="4.5" y="30.2033" width="23.0462" height="22.2967" rx="4.5" fill="#3B82F6" stroke="#93C5FD"/>
<rect x="4.5" y="29.6209" width="23.0462" height="22.2967" rx="4.5" fill="#3B82F6" stroke="#93C5FD"/>
</g>
<path d="M69.7273 27.2428V36.036H64.7166V15.4784H69.5634V23.4485H69.7376C70.0928 22.4982 70.6734 21.7554 71.4795 21.2201C72.2925 20.6847 73.2864 20.417 74.4614 20.417C75.5681 20.417 76.5313 20.658 77.351 21.1398C78.1708 21.6149 78.8061 22.2874 79.257 23.1574C79.7147 24.0273 79.9401 25.0445 79.9333 26.2089V36.036H74.9225V27.1725C74.9293 26.316 74.7107 25.6468 74.2667 25.165C73.8227 24.6831 73.1976 24.4422 72.3915 24.4422C71.8655 24.4422 71.401 24.556 70.9979 24.7835C70.6017 25.0044 70.2909 25.3222 70.0655 25.7371C69.8469 26.152 69.7341 26.6539 69.7273 27.2428Z" fill="white"/>
<path d="M87.4981 36.297C86.4939 36.297 85.6024 36.133 84.8236 35.8051C84.0517 35.4705 83.4403 34.9686 82.9894 34.2994C82.5454 33.6235 82.3234 32.777 82.3234 31.7598C82.3234 30.9033 82.4771 30.1806 82.7845 29.5917C83.0919 29.0028 83.5154 28.5243 84.0551 28.1562C84.5948 27.7882 85.2164 27.5105 85.92 27.3231C86.6237 27.129 87.3751 26.9985 88.1744 26.9316C89.0693 26.8513 89.79 26.7677 90.3365 26.6807C90.883 26.587 91.2792 26.4565 91.5251 26.2892C91.7779 26.1152 91.9043 25.871 91.9043 25.5564V25.5062C91.9043 24.991 91.7232 24.5928 91.3612 24.3117C90.9991 24.0307 90.5107 23.8902 89.8959 23.8902C89.2332 23.8902 88.7004 24.0307 88.2973 24.3117C87.8943 24.5928 87.6381 24.9809 87.5288 25.4761L82.9074 25.3155C83.0441 24.3787 83.3959 23.5422 83.9629 22.8061C84.5367 22.0633 85.3223 21.4811 86.3197 21.0595C87.3239 20.6312 88.5296 20.417 89.9368 20.417C90.941 20.417 91.8667 20.5342 92.7138 20.7684C93.5608 20.9959 94.2986 21.3305 94.9271 21.7722C95.5556 22.2071 96.0406 22.7425 96.3822 23.3782C96.7306 24.014 96.9048 24.74 96.9048 25.5564V36.036H92.1912V33.8879H92.0682C91.7881 34.4098 91.4295 34.8515 90.9923 35.2129C90.5619 35.5742 90.053 35.8453 89.4655 36.0259C88.8848 36.2066 88.229 36.297 87.4981 36.297ZM89.0454 33.0848C89.585 33.0848 90.0701 32.9778 90.5004 32.7636C90.9376 32.5495 91.286 32.255 91.5456 31.8803C91.8052 31.4989 91.935 31.0572 91.935 30.5553V29.0898C91.7915 29.1634 91.6173 29.2303 91.4124 29.2905C91.2143 29.3508 90.9957 29.4076 90.7566 29.4612C90.5175 29.5147 90.2716 29.5616 90.0188 29.6017C89.7661 29.6419 89.5235 29.6787 89.2913 29.7121C88.8199 29.7857 88.4169 29.8995 88.0821 30.0534C87.7542 30.2073 87.5015 30.4081 87.3239 30.6557C87.1531 30.8966 87.0677 31.1843 87.0677 31.5189C87.0677 32.0275 87.2521 32.4157 87.621 32.6833C87.9968 32.951 88.4715 33.0848 89.0454 33.0848Z" fill="white"/>
<path d="M99.9686 36.036V15.4784H104.979V23.2578H105.082C105.287 22.7893 105.577 22.3376 105.953 21.9027C106.335 21.4677 106.82 21.113 107.408 20.8386C108.002 20.5576 108.713 20.417 109.539 20.417C110.632 20.417 111.654 20.6981 112.603 21.2602C113.559 21.8223 114.331 22.689 114.919 23.86C115.506 25.0311 115.8 26.5234 115.8 28.3369C115.8 30.0835 115.517 31.5457 114.95 32.7235C114.389 33.9013 113.631 34.7846 112.675 35.3735C111.725 35.9624 110.67 36.2568 109.508 36.2568C108.716 36.2568 108.03 36.1297 107.449 35.8754C106.868 35.6211 106.38 35.2865 105.984 34.8716C105.594 34.4567 105.294 34.0117 105.082 33.5366H104.928V36.036H99.9686ZM104.877 28.3269C104.877 29.1567 104.99 29.8794 105.215 30.4951C105.447 31.1107 105.779 31.5892 106.209 31.9305C106.646 32.2651 107.169 32.4324 107.777 32.4324C108.392 32.4324 108.914 32.2651 109.345 31.9305C109.775 31.5892 110.099 31.1107 110.318 30.4951C110.543 29.8794 110.656 29.1567 110.656 28.3269C110.656 27.4971 110.543 26.7777 110.318 26.1687C110.099 25.5598 109.775 25.088 109.345 24.7534C108.921 24.4188 108.398 24.2515 107.777 24.2515C107.162 24.2515 106.639 24.4155 106.209 24.7434C105.779 25.0713 105.447 25.5397 105.215 26.1487C104.99 26.7576 104.877 27.4837 104.877 28.3269Z" fill="white"/>
<path d="M118.426 36.036V20.6178H123.437V36.036H118.426ZM120.936 18.821C120.233 18.821 119.628 18.5935 119.123 18.1384C118.617 17.6767 118.364 17.1213 118.364 16.4722C118.364 15.8297 118.617 15.281 119.123 14.8259C119.628 14.3642 120.233 14.1333 120.936 14.1333C121.647 14.1333 122.251 14.3642 122.75 14.8259C123.256 15.281 123.508 15.8297 123.508 16.4722C123.508 17.1213 123.256 17.6767 122.75 18.1384C122.251 18.5935 121.647 18.821 120.936 18.821Z" fill="white"/>
<path d="M135.51 20.6178V24.2314H125.581V20.6178H135.51ZM127.661 16.9239H132.672V31.1877C132.672 31.4888 132.72 31.7331 132.815 31.9205C132.918 32.1011 133.065 32.2316 133.256 32.3119C133.447 32.3855 133.676 32.4223 133.942 32.4223C134.134 32.4223 134.335 32.4056 134.547 32.3722C134.766 32.332 134.929 32.2985 135.039 32.2718L135.797 35.8152C135.558 35.8821 135.22 35.9657 134.783 36.0661C134.352 36.1665 133.836 36.23 133.235 36.2568C132.06 36.3104 131.053 36.1765 130.212 35.8553C129.379 35.5274 128.74 35.0188 128.296 34.3295C127.859 33.6403 127.647 32.7737 127.661 31.7297V16.9239Z" fill="white"/>
<path d="M151.611 25.3256L147.01 25.446C146.962 25.1248 146.832 24.8404 146.62 24.5928C146.409 24.3385 146.132 24.1411 145.79 24.0006C145.456 23.8533 145.066 23.7797 144.622 23.7797C144.042 23.7797 143.546 23.8935 143.136 24.121C142.733 24.3485 142.535 24.6564 142.542 25.0445C142.535 25.3456 142.658 25.6066 142.911 25.8275C143.171 26.0483 143.632 26.2256 144.294 26.3595L147.327 26.9216C148.899 27.216 150.067 27.7045 150.832 28.3871C151.604 29.0697 151.993 29.9731 152 31.0973C151.993 32.1547 151.672 33.0748 151.037 33.8578C150.408 34.6407 149.548 35.2497 148.455 35.6847C147.362 36.1129 146.111 36.3271 144.704 36.3271C142.457 36.3271 140.684 35.8754 139.386 34.972C138.095 34.0619 137.357 32.8439 137.173 31.3182L142.122 31.1977C142.231 31.7598 142.515 32.1881 142.972 32.4826C143.43 32.777 144.014 32.9242 144.725 32.9242C145.367 32.9242 145.889 32.8071 146.292 32.5729C146.696 32.3387 146.9 32.0275 146.907 31.6394C146.9 31.2914 146.743 31.0137 146.436 30.8062C146.129 30.5921 145.647 30.4248 144.991 30.3044L142.245 29.7924C140.667 29.5114 139.492 28.9927 138.72 28.2366C137.948 27.4737 137.565 26.5033 137.572 25.3256C137.565 24.295 137.846 23.415 138.413 22.6856C138.98 21.9495 139.786 21.3874 140.831 20.9992C141.876 20.6111 143.109 20.417 144.53 20.417C146.661 20.417 148.342 20.8554 149.571 21.732C150.801 22.602 151.481 23.7998 151.611 25.3256Z" fill="white"/>
<defs>
<filter id="filter0_d_537_42" x="0" y="0" width="62.1039" height="61" filterUnits="userSpaceOnUse" color-interpolation-filters="sRGB">
<feFlood flood-opacity="0" result="BackgroundImageFix"/>
<feColorMatrix in="SourceAlpha" type="matrix" values="0 0 0 0 0 0 0 0 0 0 0 0 0 0 0 0 0 0 127 0" result="hardAlpha"/>
<feOffset dy="4"/>
<feGaussianBlur stdDeviation="2"/>
<feComposite in2="hardAlpha" operator="out"/>
<feColorMatrix type="matrix" values="0 0 0 0 0 0 0 0 0 0 0 0 0 0 0 0 0 0 0.25 0"/>
<feBlend mode="normal" in2="BackgroundImageFix" result="effect1_dropShadow_537_42"/>
<feBlend mode="normal" in="SourceGraphic" in2="effect1_dropShadow_537_42" result="shape"/>
</filter>
</defs>
</svg>
